<svg id="ImportedIcons" xmlns="http://www.w3.org/2000/svg" width="96" height="96" viewBox="0 0 96 96">
  <defs>
    <style>
      .cls-1 {
        fill: #b3b3b3;
      }
    </style>
  </defs>
  <path class="cls-1" d="M51.982,63.536a1.5,1.5,0,0,1-1.41-.99L43.73,43.656a1.5,1.5,0,0,1,2.82-1.021l6.842,18.89a1.5,1.5,0,0,1-1.41,2.011Z"/>
  <path class="cls-1" d="M38.114,60.966a1.5,1.5,0,0,1-.95-.339L28.77,53.752a1.5,1.5,0,0,1,0-2.321l8.394-6.875a1.5,1.5,0,0,1,1.9,2.32l-6.977,5.715,6.977,5.714a1.5,1.5,0,0,1-.952,2.661Z"/>
  <path class="cls-1" d="M84.5,21h-74A3.5,3.5,0,0,0,7,24.5v50A3.5,3.5,0,0,0,10.5,78h74A3.5,3.5,0,0,0,88,74.5v-50A3.5,3.5,0,0,0,84.5,21Zm-74,3h74a.5.5,0,0,1,.5.5V32H10V24.5A.5.5,0,0,1,10.5,24Zm74,51h-74a.5.5,0,0,1-.5-.5V34H85V74.5A.5.5,0,0,1,84.5,75Z"/>
  <path class="cls-1" d="M57.864,60.966a1.5,1.5,0,0,1-.952-2.661l6.977-5.714-6.977-5.715a1.5,1.5,0,0,1,1.9-2.32l8.394,6.875a1.5,1.5,0,0,1,0,2.321l-8.394,6.875A1.5,1.5,0,0,1,57.864,60.966Z"/>
  <path class="cls-1" d="M20,29H14a1,1,0,0,1,0-2h6a1,1,0,0,1,0,2Z"/>
</svg>
