<svg id="ImportedIcons" xmlns="http://www.w3.org/2000/svg" width="96" height="96" viewBox="0 0 96 96">
  <defs>
    <style>
      .cls-1 {
        fill: #b3b3b3;
      }
    </style>
  </defs>
  <path class="cls-1" d="M21.488,64.732H6.429a3.5,3.5,0,0,1-3.5-3.5V34.768a3.5,3.5,0,0,1,3.5-3.5H20.853a1.5,1.5,0,0,1,0,3H6.429a.5.5,0,0,0-.5.5V61.232a.5.5,0,0,0,.5.5H21.488a1.5,1.5,0,1,1,.00478,3Z"/>
  <path class="cls-1" d="M59.312,68.213a3.482,3.482,0,0,1-1.67-.429L36.011,55.993a3.5,3.5,0,0,1-1.40089-4.74737L34.611,51.244,46.4,29.614a3.5,3.5,0,0,1,4.74756-1.40024l.00044.00024,7.815,4.26a1.5,1.5,0,1,1-1.436,2.634l-7.816-4.26a.5.5,0,0,0-.678.2L37.247,52.68a.5.5,0,0,0,.19909.6785l.00091.0005L59.077,65.15a.5.5,0,0,0,.6785-.19908L59.756,64.95l.4-.733a1.50024,1.50024,0,0,1,2.634,1.437l-.4.733a3.479,3.479,0,0,1-2.084,1.682A3.52392,3.52392,0,0,1,59.312,68.213Z"/>
  <path class="cls-1" d="M47.505,66.829a1.49955,1.49955,0,0,1-.36-.044L21.284,60.411a3.5,3.5,0,0,1-2.56108-4.23567L18.723,56.175l5.9-23.92a3.5,3.5,0,0,1,4.23566-2.56109l.00034.00009L40.68,32.608a1.50009,1.50009,0,1,1-.718,2.913h0L28.137,32.606a.5.5,0,0,0-.6.366l-5.9,23.92a.5.5,0,0,0,.366.6l25.862,6.375a1.5,1.5,0,0,1-.358,2.957Z"/>
  <path class="cls-1" d="M72.6,70.2a3.475,3.475,0,0,1-2.358-.917l-19.53-17.86a3.5,3.5,0,0,1-.22118-4.94481L50.491,46.478l17.86-19.53h0a3.5,3.5,0,0,1,4.94485-.22014l.00015.00014,19.529,17.86a3.5,3.5,0,0,1,.22118,4.9448l-.00018.0002-17.86,19.53a3.478,3.478,0,0,1-2.427,1.134C72.7,70.194,72.649,70.2,72.6,70.2ZM70.561,28.967,52.7,48.5a.5.5,0,0,0,.03136.70641l.00043.0004L72.262,67.067a.517.517,0,0,0,.36.131.5.5,0,0,0,.347-.163L90.829,47.5a.5.5,0,0,0-.029-.7L71.27,28.94a.508.508,0,0,0-.36-.131.5.5,0,0,0-.347.162Z"/>
</svg>
