<svg id="ImportedIcons" xmlns="http://www.w3.org/2000/svg" width="96" height="96" viewBox="0 0 96 96">
  <defs>
    <style>
      .cls-1 {
        fill: #b3b3b3;
      }
    </style>
  </defs>
  <path class="cls-1" d="M77.029,63.392a1.5,1.5,0,0,0-1.465,1.534L75.8,75.01,60.685,59.9a1.5,1.5,0,0,0-2.121,2.121L73.678,77.134,63.593,76.9a1.5004,1.5004,0,0,0-.069,3l12.254.283h.067a3,3,0,0,0,3.00079-2.99921q0-.0349-.00079-.06979l-.283-12.258a1.493,1.493,0,0,0-1.52118-1.46427Z"/>
  <path class="cls-1" d="M32.984,59.9,17.867,75.014,18.1,64.928a1.5004,1.5004,0,0,0-3-.069h0l-.283,12.255a3,3,0,0,0,2.93021,3.06821q.03489.00079.06979.00079h.067l12.26-.283a1.5,1.5,0,0,0,1.465-1.534,1.481,1.481,0,0,0-1.495-1.46688L30.075,76.9l-10.084.233L35.1,62.021A1.5,1.5,0,0,0,32.984,59.9Z"/>
  <path class="cls-1" d="M16.6,32.945h.035A1.5,1.5,0,0,0,18.1,31.411l-.233-10.084L32.98,36.44a1.5,1.5,0,0,0,2.12-2.121L19.988,19.2l10.085.232a1.478,1.478,0,0,0,1.533-1.42089l.001-.04411a1.5,1.5,0,0,0-1.465-1.534l-12.253-.282a3,3,0,0,0-3.069,2.9294q-.00161.06928,0,.1386L15.1,31.48A1.5,1.5,0,0,0,16.6,32.945Z"/>
  <path class="cls-1" d="M59.621,36.877a1.5,1.5,0,0,0,1.061-.439L75.8,21.323l-.233,10.085a1.5,1.5,0,0,0,1.465,1.534h.035a1.5,1.5,0,0,0,1.5-1.465l.283-12.255a3,3,0,0,0-2.93042-3.068q-.06878-.00157-.13758,0l-12.257.283a1.5004,1.5004,0,0,0,.069,3L73.675,19.2,58.56,34.316a1.5,1.5,0,0,0,1.061,2.561Z"/>
</svg>
