<svg id="ImportedIcons" xmlns="http://www.w3.org/2000/svg" width="96" height="96" viewBox="0 0 96 96">
  <defs>
    <style>
      .cls-1 {
        fill: #b3b3b3;
      }
    </style>
  </defs>
  <path class="cls-1" d="M22.5,68a14.5,14.5,0,0,1,0-29H44.083l-3.119,3.132a1.5,1.5,0,0,0,2.08958,2.1526L43.09,44.248l5.645-5.669a1.5,1.5,0,0,0,0-2.121l-5.669-5.644A1.5,1.5,0,0,0,40.95,32.94L44.018,36H22.5a17.5,17.5,0,0,0,0,35,1.5,1.5,0,0,0,0-3Z"/>
  <path class="cls-1" d="M70.5,26a1.5,1.5,0,0,0,0,3,14.5,14.5,0,0,1,0,29H49.655l2.056-2.064a1.50013,1.50013,0,1,0-2.126-2.117L43.94,59.487a1.5,1.5,0,0,0-.00068,2.12132l.00045.00045L49.609,67.254a1.50013,1.50013,0,1,0,2.117-2.126L47.12,60.542l.164-.164A1.494,1.494,0,0,0,48.5,61h22a17.5,17.5,0,0,0,0-35Z"/>
  <path class="cls-1" d="M35,16a1,1,0,0,0,0,2h6a1,1,0,0,0,0-2Z"/>
  <path class="cls-1" d="M29.5,32.3A1.5,1.5,0,0,0,31,30.8V13.5a.5.5,0,0,1,.5-.5h30a.5.5,0,0,1,.5.5V53a1.5,1.5,0,0,0,3,0V13.5A3.5,3.5,0,0,0,61.5,10h-30A3.5,3.5,0,0,0,28,13.5V30.8A1.5,1.5,0,0,0,29.5,32.3Z"/>
  <path class="cls-1" d="M63.5,65.1A1.5,1.5,0,0,0,62,66.6V86.5a.5.5,0,0,1-.5.5h-30a.5.5,0,0,1-.5-.5V43.8a1.5,1.5,0,0,0-3,0V86.5A3.5,3.5,0,0,0,31.5,90h30A3.5,3.5,0,0,0,65,86.5V66.6A1.5,1.5,0,0,0,63.5,65.1Z"/>
</svg>
