<svg id="ImportedIcons" xmlns="http://www.w3.org/2000/svg" width="96" height="96" viewBox="0 0 96 96">
  <defs>
    <style>
      .cls-1 {
        fill: #b3b3b3;
      }
    </style>
  </defs>
  <path class="cls-1" d="M57.065,87.276A3.483,3.483,0,0,1,54.137,85.7L45.32,72.263a1.5,1.5,0,0,1,2.508-1.646L56.645,84.05a.46.46,0,0,0,.427.226l14.942-.305a.5.5,0,0,0,.438-.268l7.816-14.864a.5.5,0,0,0-.017-.494L72.222,55.286a1.5001,1.5001,0,1,1,2.556-1.571l8.029,13.059a3.514,3.514,0,0,1,.116,3.462L75.107,85.1a3.5,3.5,0,0,1-3.035,1.871l-14.942.305Z"/>
  <path class="cls-1" d="M73.5,45a1.5,1.5,0,0,1-1.246-2.333L81.621,28.65a.493.493,0,0,0,.006-.482l-7.889-14.9A.5.5,0,0,0,73.3,13H57.552a.5.5,0,0,0-.413.217L46.736,28.35a1.50007,1.50007,0,0,1-2.472-1.7l10.4-15.133A3.5,3.5,0,0,1,57.552,10H73.3a3.493,3.493,0,0,1,3.093,1.863l7.889,14.9a3.5,3.5,0,0,1-.149,3.53l-9.386,14.04A1.5,1.5,0,0,1,73.5,45Z"/>
  <path class="cls-1" d="M35.5,68H19.612a3.48,3.48,0,0,1-2.973-1.653L7.766,52.056a3.5,3.5,0,0,1-.076-3.564l8.286-14.709A3.505,3.505,0,0,1,19.025,32h0l16.473.007a1.5,1.5,0,0,1,0,3h0L19.026,35h0a.5.5,0,0,0-.436.255L10.3,49.964a.5.5,0,0,0,.01.509l8.873,14.291a.5.5,0,0,0,.425.236H35.5a1.5,1.5,0,0,1,0,3Z"/>
  <path class="cls-1" d="M59.354,68.046h-.009L43.509,68a3.5,3.5,0,0,1-3.062-1.822l-8.33-15.242a3.511,3.511,0,0,1,.077-3.491L40.52,33.688A3.518,3.518,0,0,1,43.514,32H58.532a3.494,3.494,0,0,1,2.91,1.555L70.7,47.41a3.488,3.488,0,0,1,.15,3.645L62.41,66.246A3.5,3.5,0,0,1,59.354,68.046ZM43.514,35a.5.5,0,0,0-.428.241L34.761,49a.5.5,0,0,0-.011.5l8.33,15.239a.5.5,0,0,0,.438.261l15.836.046h0a.5.5,0,0,0,.438-.258L68.232,49.6a.5.5,0,0,0-.022-.521L58.948,35.222A.5.5,0,0,0,58.532,35Z"/>
</svg>
